<svg width="680" height="612" viewBox="0 0 680 612" xmlns="http://www.w3.org/2000/svg" font-family="sans-serif">
  <defs>
    <marker id="arrow" viewBox="0 0 10 10" refX="8" refY="5" markerWidth="6" markerHeight="6" orient="auto-start-reverse">
      <path d="M2 1L8 5L2 9" fill="none" stroke="#888" stroke-width="1.5" stroke-linecap="round" stroke-linejoin="round"/>
    </marker>
  </defs>

  <!-- Background -->
  <rect width="680" height="612" fill="#ffffff"/>

  <!-- Layer labels -->
  <text x="14" y="55"  font-size="9" fill="#aaa" transform="rotate(-90,14,55)">bootstrap</text>
  <text x="14" y="150" font-size="9" fill="#aaa" transform="rotate(-90,14,150)">scheduler</text>
  <text x="14" y="258" font-size="9" fill="#aaa" transform="rotate(-90,14,258)">plugins</text>
  <text x="14" y="378" font-size="9" fill="#aaa" transform="rotate(-90,14,378)">store</text>
  <text x="14" y="475" font-size="9" fill="#aaa" transform="rotate(-90,14,475)">outputs</text>
  <text x="14" y="572" font-size="9" fill="#aaa" transform="rotate(-90,14,572)">consumers</text>

  <!-- Row 1: Bootstrap -->
  <rect x="30" y="30" width="155" height="44" rx="8" fill="#F1EFE8" stroke="#888780" stroke-width="0.5"/>
  <text x="107" y="52" text-anchor="middle" dominant-baseline="central" font-size="13" font-weight="500" fill="#2C2C2A">GlancesConfig</text>

  <rect x="220" y="22" width="240" height="56" rx="8" fill="#F1EFE8" stroke="#888780" stroke-width="0.5"/>
  <text x="340" y="42" text-anchor="middle" dominant-baseline="central" font-size="13" font-weight="500" fill="#2C2C2A">GlancesMain</text>
  <text x="340" y="60" text-anchor="middle" dominant-baseline="central" font-size="11" fill="#5F5E5A">standalone · server · client</text>

  <!-- Row 2: Scheduler -->
  <rect x="200" y="118" width="280" height="56" rx="8" fill="#E1F5EE" stroke="#0F6E56" stroke-width="0.5"/>
  <text x="340" y="138" text-anchor="middle" dominant-baseline="central" font-size="13" font-weight="500" fill="#085041">Asyncio Scheduler</text>
  <text x="340" y="156" text-anchor="middle" dominant-baseline="central" font-size="11" fill="#0F6E56">asyncio.gather() · per-plugin refresh_time</text>

  <!-- Row 3: Plugin Layer -->
  <rect x="38" y="204" width="604" height="100" rx="10" fill="none" stroke="#B4B2A9" stroke-width="1" stroke-dasharray="6 4"/>
  <text x="55" y="218" dominant-baseline="central" font-size="10" fill="#888780">Plugin Layer — async update()</text>

  <rect x="58" y="226" width="235" height="56" rx="8" fill="#E1F5EE" stroke="#0F6E56" stroke-width="0.5"/>
  <text x="175" y="246" text-anchor="middle" dominant-baseline="central" font-size="13" font-weight="500" fill="#085041">Local plugins</text>
  <text x="175" y="264" text-anchor="middle" dominant-baseline="central" font-size="11" fill="#0F6E56">GlancesPluginBase · psutil</text>

  <rect x="390" y="226" width="222" height="56" rx="8" fill="#E6F1FB" stroke="#185FA5" stroke-width="0.5"/>
  <text x="501" y="246" text-anchor="middle" dominant-baseline="central" font-size="13" font-weight="500" fill="#0C447C">Remote plugins</text>
  <text x="501" y="264" text-anchor="middle" dominant-baseline="central" font-size="11" fill="#185FA5">httpx · replaces XML-RPC client</text>

  <!-- Row 4: StatsStore + Alerts -->
  <rect x="200" y="348" width="280" height="56" rx="8" fill="#EEEDFE" stroke="#534AB7" stroke-width="0.5"/>
  <text x="340" y="368" text-anchor="middle" dominant-baseline="central" font-size="13" font-weight="500" fill="#3C3489">StatsStore</text>
  <text x="340" y="386" text-anchor="middle" dominant-baseline="central" font-size="11" fill="#534AB7">asyncio-safe · _levels at root</text>

  <rect x="38" y="354" width="140" height="44" rx="8" fill="#FAECE7" stroke="#993C1D" stroke-width="0.5"/>
  <text x="108" y="369" text-anchor="middle" dominant-baseline="central" font-size="13" font-weight="500" fill="#712B13">GlancesAlerts</text>
  <text x="108" y="387" text-anchor="middle" dominant-baseline="central" font-size="11" fill="#993C1D">thresholds · actions</text>

  <!-- Row 5: Outputs -->
  <rect x="38" y="445" width="155" height="56" rx="8" fill="#FAECE7" stroke="#993C1D" stroke-width="0.5"/>
  <text x="115" y="465" text-anchor="middle" dominant-baseline="central" font-size="13" font-weight="500" fill="#712B13">Curses TUI</text>
  <text x="115" y="483" text-anchor="middle" dominant-baseline="central" font-size="11" fill="#993C1D">dedicated thread</text>

  <rect x="237" y="437" width="206" height="64" rx="8" fill="#E6F1FB" stroke="#185FA5" stroke-width="0.5"/>
  <text x="340" y="457" text-anchor="middle" dominant-baseline="central" font-size="13" font-weight="500" fill="#0C447C">REST API server</text>
  <text x="340" y="473" text-anchor="middle" dominant-baseline="central" font-size="11" fill="#185FA5">FastAPI :61208</text>
  <text x="340" y="489" text-anchor="middle" dominant-baseline="central" font-size="11" fill="#185FA5">WebUI + remote Glances clients</text>

  <rect x="480" y="445" width="155" height="56" rx="8" fill="#FAEEDA" stroke="#854F0B" stroke-width="0.5"/>
  <text x="557" y="465" text-anchor="middle" dominant-baseline="central" font-size="13" font-weight="500" fill="#633806">Export Engine</text>
  <text x="557" y="483" text-anchor="middle" dominant-baseline="central" font-size="11" fill="#854F0B">async export modules</text>

  <!-- Row 6: Consumers -->
  <!-- terminal · standalone -->
  <rect x="38" y="555" width="74" height="36" rx="6" fill="#F1EFE8" stroke="#888780" stroke-width="0.5"/>
  <text x="75" y="567" text-anchor="middle" dominant-baseline="central" font-size="10" fill="#444441">terminal</text>
  <text x="75" y="581" text-anchor="middle" dominant-baseline="central" font-size="10" fill="#444441">standalone</text>

  <!-- terminal · client (REST) -->
  <rect x="118" y="555" width="75" height="36" rx="6" fill="#E6F1FB" stroke="#185FA5" stroke-width="0.5" stroke-dasharray="4 2"/>
  <text x="155" y="567" text-anchor="middle" dominant-baseline="central" font-size="10" fill="#0C447C">terminal</text>
  <text x="155" y="581" text-anchor="middle" dominant-baseline="central" font-size="10" fill="#185FA5">client (REST)</text>

  <rect x="237" y="555" width="206" height="36" rx="6" fill="#E6F1FB" stroke="#185FA5" stroke-width="0.5"/>
  <text x="340" y="573" text-anchor="middle" dominant-baseline="central" font-size="11" fill="#0C447C">WebUI Vue.js 3 · OpenAPI docs</text>

  <rect x="480" y="555" width="155" height="36" rx="6" fill="#FAEEDA" stroke="#854F0B" stroke-width="0.5"/>
  <text x="557" y="573" text-anchor="middle" dominant-baseline="central" font-size="11" fill="#633806">InfluxDB · Prom · Elastic · …</text>

  <!-- Arrows -->
  <path d="M107,74 L107,146 L200,146" fill="none" stroke="#888" stroke-width="1" marker-end="url(#arrow)"/>
  <line x1="340" y1="78" x2="340" y2="118" stroke="#888" stroke-width="1" marker-end="url(#arrow)"/>
  <line x1="340" y1="174" x2="340" y2="204" stroke="#888" stroke-width="1" marker-end="url(#arrow)"/>
  <path d="M175,282 L175,328 L290,328 L290,348" fill="none" stroke="#888" stroke-width="1" marker-end="url(#arrow)"/>
  <path d="M491,282 L491,328 L400,328 L400,348" fill="none" stroke="#888" stroke-width="1" marker-end="url(#arrow)"/>
  <path d="M200,376 L178,376" fill="none" stroke="#888" stroke-width="1" marker-end="url(#arrow)"/>
  <path d="M220,404 L220,430 L115,430 L115,445" fill="none" stroke="#888" stroke-width="1" marker-end="url(#arrow)"/>
  <line x1="340" y1="404" x2="340" y2="437" stroke="#888" stroke-width="1" marker-end="url(#arrow)"/>
  <path d="M480,376 L557,376 L557,445" fill="none" stroke="#888" stroke-width="1" marker-end="url(#arrow)"/>
  <!-- Curses TUI → terminal standalone -->
  <path d="M115,501 L115,535 L75,535 L75,555" fill="none" stroke="#888" stroke-width="1" marker-end="url(#arrow)"/>
  <!-- Curses TUI → terminal client (REST) — dashed arrow -->
  <path d="M115,501 L115,535 L155,535 L155,555" fill="none" stroke="#185FA5" stroke-width="1" stroke-dasharray="4 2" marker-end="url(#arrow)"/>
  <line x1="340" y1="501" x2="340" y2="555" stroke="#888" stroke-width="1" marker-end="url(#arrow)"/>
  <line x1="557" y1="501" x2="557" y2="555" stroke="#888" stroke-width="1" marker-end="url(#arrow)"/>
</svg>
