<svg width="466" height="513" viewBox="0 0 466 513" fill="none" xmlns="http://www.w3.org/2000/svg">
<path fill-rule="evenodd" clip-rule="evenodd" d="M255.158 74.6719C210.447 74.6719 169.577 90.8033 137.94 117.597L101.314 74.351C142.801 39.2144 196.539 18 255.158 18C313.777 18 367.514 39.2144 409.002 74.351L372.375 117.597C340.739 90.8033 299.869 74.6719 255.158 74.6719Z" fill="#57CB6A"/>
<path fill-rule="evenodd" clip-rule="evenodd" d="M69.724 269.786C78.8585 239.798 93.6848 213.11 114.202 189.72C109.215 190.339 104.374 191.744 99.6848 193.934C99.4507 193.778 99.2179 193.622 98.9852 193.466C98.7524 193.31 98.5197 193.153 98.2856 192.997C115.671 167.026 137.51 145.644 163.821 128.851C148.064 102.5 139.949 73.9389 139.475 43.1663C175.368 48.9377 205.645 65.0133 230.302 91.3932C274.053 98.9935 313.69 115.849 349.218 141.961C357.984 148.228 364.694 156.188 369.349 165.841C371.421 173.282 373.29 180.773 374.963 188.315C378.06 195.163 382.598 200.939 388.553 205.639C396.216 212.36 404.635 217.979 413.827 222.496C425.428 226.146 437.299 228.487 449.419 229.519C450.036 238.808 447.687 247.236 442.388 254.803C422.562 269.701 400.243 275.475 375.436 272.127C354.959 268.606 334.526 265.016 314.115 261.358C298.373 261.798 289.313 269.913 286.953 285.706C285.479 298.85 288.291 311.024 295.383 322.227C298.898 327.698 302.636 333.004 306.612 338.146C317.576 350.517 329.288 362.067 341.732 372.795C335.351 374.599 328.801 375.692 322.073 376.072C329.039 380.163 337.274 385.383 345.878 390.837C360.519 400.118 376.227 410.074 388.553 416.286C337.769 445.709 282.887 477.418 169.436 434.6C120.749 416.226 83.0894 382.995 69.724 348.786C58.1736 319.223 60.5895 299.774 69.724 269.786ZM293.571 177.683C316.621 190.99 343.292 187.948 343.292 187.948C343.292 187.948 333.852 161.145 310.802 147.837C287.753 134.529 259.821 139.756 259.821 139.756C259.821 139.756 270.521 164.375 293.571 177.683Z" fill="#494949"/>
<path opacity="0.976" fill-rule="evenodd" clip-rule="evenodd" d="M296.872 356.751C291.496 356.475 286.193 356.007 280.958 355.347C300.379 370.178 315.357 388.594 325.89 410.591C321.407 409.082 316.726 407.989 311.849 407.314C315.577 416.3 319.321 425.351 323.082 434.468C261.493 452.42 204.235 443.369 151.309 407.314C150.685 402.008 150.685 396.702 151.309 391.396C152.52 380.056 154.079 368.82 155.99 357.688C146.778 368.801 139.913 381.286 135.396 395.141C133.367 393.112 131.34 391.084 129.311 389.055C131.985 368.86 138.225 349.821 148.033 331.938C145.902 332.304 143.718 332.304 141.48 331.938C142.614 332.774 142.614 333.554 141.48 334.279C137.084 337.409 132.716 340.53 128.375 343.643C140.699 316.793 158.484 294.164 181.732 275.758C188.213 271.424 195.078 267.834 202.326 264.99C204.288 277.522 207.565 289.694 212.155 301.507C212.731 303.02 213.667 304.268 214.964 305.252C224.041 288.216 235.118 272.61 248.195 258.435C247.883 258.123 247.57 257.811 247.259 257.499C236.51 263.412 226.992 270.903 218.708 279.971C214.966 269.684 212.781 259.072 212.155 248.135C211.792 247.267 211.168 246.642 210.283 246.263C195.64 251.401 181.911 258.268 169.095 266.862C174.297 249.902 182.254 234.297 192.965 220.045C191.167 218.977 189.295 218.82 187.349 219.577C181.431 221.394 175.503 223.112 169.563 224.727C169.563 224.415 169.563 224.102 169.563 223.791C186.845 203.591 208.688 191.107 235.089 186.337C228.102 183.226 220.925 180.573 213.559 178.378C232.751 178.16 251.16 181.905 268.789 189.614C293.076 201.759 316.79 214.868 339.932 228.94C364.586 243.299 391.108 249.229 419.5 246.731C424.816 244.085 429.496 244.865 433.541 249.072C417.681 261.779 399.582 266.617 379.248 263.585C362.612 260.632 346.075 257.198 329.635 253.285C289.901 244.644 271.023 260.717 273.001 301.507C274.036 311.264 276.532 320.627 280.49 329.597C285.501 339.011 290.961 348.063 296.872 356.751Z" fill="#656565"/>
<path opacity="0.976" fill-rule="evenodd" clip-rule="evenodd" d="M196.71 87.0847C188.449 82.7977 180.024 78.7402 171.436 74.9123C171.124 75.2244 170.811 75.5365 170.5 75.8486C174.6 82.3323 178.344 89.0428 181.733 95.98C178.363 95.004 175.243 93.2874 172.372 90.8301C172.06 91.1422 171.747 91.4544 171.436 91.7665C172.803 97.9843 174.052 104.227 175.18 110.493C164.477 95.9365 157.3 79.7065 153.65 61.8035C170.36 66.374 184.714 74.8011 196.71 87.0847Z" fill="#656565"/>
<path fill-rule="evenodd" clip-rule="evenodd" d="M137.94 117.597C98.5802 150.932 73.6684 200.623 73.6684 256.161C73.6684 356.395 154.924 437.65 255.158 437.65C292.62 437.65 327.376 426.327 356.267 406.904V308.015H412.939V435.092L402.098 443.601C361.629 475.365 310.568 494.322 255.158 494.322C123.625 494.322 16.9966 387.694 16.9966 256.161C16.9966 183.263 49.7834 117.993 101.314 74.3508L137.94 117.597Z" fill="#57CB6A"/>
<path d="M298.832 173.943V157.86C298.411 158.251 297.894 158.641 297.28 159.032C296.682 159.407 296.052 159.765 295.389 160.106C294.726 160.432 294.071 160.733 293.425 161.01C292.778 161.27 292.213 161.474 291.728 161.62V156.81C292.277 156.582 292.908 156.24 293.619 155.785C294.346 155.329 295.049 154.849 295.728 154.344C296.407 153.823 297.021 153.326 297.571 152.854C298.12 152.382 298.492 152.016 298.686 151.756H303.899V173.943H298.832Z" fill="#57CB6A"/>
</svg>
