<svg width="680" height="728" viewBox="0 0 680 728" fill="none" xmlns="http://www.w3.org/2000/svg">
<path d="M120.262 582.227C117.893 587.757 116.313 592.496 113.943 598.026C105.253 593.286 95.7737 590.916 86.2942 590.126C63.3855 588.546 46.7964 598.816 40.4767 620.935C35.737 637.524 35.737 654.113 42.8466 669.912C49.1663 684.131 59.4357 692.031 75.2348 693.611C84.7143 694.401 93.4039 693.611 102.883 692.031C102.883 684.131 102.883 675.442 102.883 667.542C102.883 659.643 102.883 651.743 102.883 643.843C109.203 643.843 114.733 643.843 120.262 643.843C120.262 664.382 120.262 684.131 120.262 705.46C114.733 706.25 109.203 707.83 103.673 708.62C94.9838 709.41 86.2943 710.99 77.6047 710.99C43.6366 710.99 21.5177 688.871 17.568 656.483C15.988 643.054 15.988 628.834 20.7278 615.405C29.4173 589.336 51.5361 573.537 79.1846 572.747C90.244 572.747 100.513 574.327 109.993 577.487C113.943 579.067 117.103 580.647 120.262 582.227Z" fill="#C8C8C8"/>
<path d="M576.857 663.595C553.949 663.595 531.83 663.595 508.921 663.595C510.501 668.335 510.501 673.075 512.081 677.814C516.031 688.084 523.93 692.824 534.2 694.403C544.469 695.983 554.739 695.193 565.008 691.244C565.798 691.244 567.378 690.454 568.168 690.454C568.958 695.193 569.748 699.933 570.538 705.463C563.428 707.043 557.108 708.623 550.789 709.413C538.149 710.993 525.51 710.203 513.661 703.883C503.391 698.353 496.282 690.454 493.122 679.394C488.382 662.805 488.382 646.216 496.282 630.417C505.761 611.458 526.3 602.768 546.839 607.508C561.848 611.458 569.748 620.937 573.698 635.947C576.857 644.636 577.647 653.326 576.857 663.595ZM509.711 648.586C526.3 648.586 542.099 648.586 558.688 648.586C558.688 632.787 550.789 622.517 537.36 621.727C522.35 620.937 511.291 632.787 509.711 648.586Z" fill="#C8C8C8"/>
<path d="M269.564 706.25C250.605 708.62 232.436 712.569 214.267 707.04C200.838 703.09 194.518 692.82 194.518 678.601C194.518 665.172 201.628 654.903 214.267 650.953C225.326 647.003 237.176 647.003 249.025 649.373C250.605 649.373 251.395 650.163 252.975 650.163C254.555 634.364 249.025 624.094 234.806 622.514C225.326 621.724 216.637 623.304 207.157 625.674C206.367 620.934 205.577 616.195 204.788 611.455C210.317 608.295 216.637 608.295 222.957 607.505C233.226 606.715 242.705 606.715 252.185 610.665C260.085 613.825 265.614 620.144 267.984 628.044C268.774 631.204 270.354 635.154 270.354 638.313C269.564 660.432 269.564 683.341 269.564 706.25ZM252.185 663.592C241.916 661.222 230.856 660.432 221.377 664.382C215.057 666.752 211.897 672.282 211.897 678.601C211.897 686.501 215.847 690.451 222.957 692.82C232.436 695.98 242.705 694.4 252.185 693.61C252.185 683.341 252.185 673.861 252.185 663.592Z" fill="#C8C8C8"/>
<path d="M299.588 612.249C305.118 611.459 310.648 609.879 316.967 609.089C327.237 608.299 338.296 607.509 348.566 608.299C365.155 609.879 375.424 620.938 377.794 638.317C378.584 643.847 378.584 648.587 378.584 654.116C378.584 670.706 378.584 686.505 378.584 703.094C378.584 704.674 378.584 706.254 378.584 707.834C372.264 707.834 366.735 707.834 360.415 707.834C360.415 706.254 360.415 704.674 360.415 703.094C360.415 688.085 360.415 673.075 360.415 658.066C360.415 650.957 359.625 643.847 358.045 636.737C356.465 628.838 350.936 624.888 343.826 624.098C335.136 622.518 326.447 624.098 317.757 625.678C317.757 653.326 317.757 680.975 317.757 708.623C311.438 708.623 305.908 708.623 300.378 708.623C299.588 676.235 299.588 644.637 299.588 612.249Z" fill="#C8C8C8"/>
<path d="M658.216 610.664C657.426 616.193 655.846 620.933 655.056 624.883C647.947 623.303 641.627 621.723 634.517 621.723C630.568 621.723 625.828 622.513 621.878 623.303C613.979 626.463 611.609 635.152 617.928 641.472C620.298 643.842 624.248 646.212 628.198 647.792C634.517 650.952 640.837 652.531 647.157 655.691C654.266 658.851 660.586 663.591 662.956 672.28C666.906 688.869 661.376 703.879 640.047 707.828C625.828 710.988 611.609 710.198 598.179 704.669C597.389 704.669 596.599 703.879 595.809 703.879L595.02 703.089C595.809 698.349 597.389 693.609 598.179 688.869C605.289 690.449 611.609 692.819 618.718 693.609C625.038 694.399 632.148 693.609 638.467 692.029C647.157 689.659 649.527 680.18 643.207 673.86C640.837 671.49 637.677 669.121 634.517 668.331C628.198 665.171 622.668 662.801 616.348 660.431C609.239 657.271 602.919 653.321 599.759 645.422C593.44 629.623 602.129 613.034 619.508 608.294C628.988 605.134 646.367 605.924 658.216 610.664Z" fill="#C8C8C8"/>
<path d="M474.939 690.45C475.729 695.19 476.519 699.929 477.309 704.669C475.729 705.459 474.939 706.249 474.149 706.249C460.72 710.199 447.291 710.989 433.862 707.039C419.642 702.299 409.373 692.82 405.423 678.6C400.683 662.801 400.683 647.002 408.583 631.203C415.693 616.194 428.332 607.504 444.921 605.924C455.19 605.134 465.46 605.924 475.729 610.664C474.149 615.404 473.359 620.144 471.78 624.883C466.25 624.093 461.51 622.513 456.77 621.723C447.291 620.934 437.021 621.723 429.912 629.623C426.752 632.783 424.382 637.523 422.802 641.472C419.642 653.322 419.642 665.171 423.592 676.231C427.542 686.5 434.652 691.24 444.921 692.82C453.611 694.4 463.09 693.61 471.78 690.45C472.57 691.24 473.36 691.24 474.939 690.45Z" fill="#C8C8C8"/>
<path d="M181.872 694.401C181.082 699.141 180.292 703.88 179.502 708.62C162.913 711.78 148.694 701.511 148.694 684.132C148.694 646.214 148.694 608.296 148.694 571.168C148.694 568.798 148.694 566.428 148.694 564.058C155.014 563.268 160.543 561.688 166.863 560.898C166.863 563.268 166.863 564.848 166.863 566.428C166.863 602.766 166.863 639.104 166.863 675.442C166.863 677.812 166.863 680.182 166.863 681.762C167.653 688.871 170.023 692.031 177.922 693.611C178.712 693.611 179.502 694.401 181.872 694.401Z" fill="#C8C8C8"/>
<path fill-rule="evenodd" clip-rule="evenodd" d="M363.938 77.9551C315.848 77.9551 271.889 95.3057 237.861 124.124L198.467 77.6099C243.09 39.8177 300.888 17 363.938 17C426.988 17 484.786 39.8177 529.409 77.6099L490.015 124.124C455.987 95.3057 412.028 77.9551 363.938 77.9551Z" fill="#57CB6A"/>
<path fill-rule="evenodd" clip-rule="evenodd" d="M164.49 287.816C174.314 255.562 190.261 226.856 212.329 201.698C206.966 202.364 201.759 203.875 196.715 206.231C196.463 206.063 196.213 205.895 195.962 205.727C195.712 205.559 195.461 205.391 195.21 205.224C213.909 177.289 237.398 154.292 265.699 136.229C248.751 107.887 240.022 77.1667 239.512 44.0684C278.118 50.276 310.683 67.5666 337.204 95.9402C384.261 104.115 426.895 122.245 465.107 150.33C474.536 157.07 481.753 165.632 486.76 176.014C488.989 184.018 490.999 192.075 492.799 200.188C496.129 207.553 501.01 213.765 507.416 218.821C515.658 226.05 524.713 232.093 534.599 236.951C547.077 240.877 559.845 243.395 572.882 244.505C573.545 254.497 571.019 263.562 565.319 271.7C543.994 287.724 519.988 293.935 493.306 290.334C471.283 286.547 449.305 282.685 427.351 278.751C410.419 279.224 400.675 287.953 398.136 304.939C396.551 319.077 399.575 332.171 407.203 344.22C410.984 350.104 415.005 355.812 419.281 361.343C431.074 374.648 443.671 387.071 457.055 398.61C450.192 400.551 443.147 401.726 435.911 402.135C443.403 406.535 452.261 412.15 461.515 418.015C477.263 427.998 494.157 438.707 507.416 445.388C452.793 477.035 393.764 511.14 271.737 465.087C219.371 445.323 178.865 409.581 164.49 372.787C152.066 340.989 154.665 320.07 164.49 287.816ZM405.255 188.751C430.047 203.065 458.733 199.792 458.733 199.792C458.733 199.792 448.58 170.964 423.788 156.65C398.997 142.336 368.954 147.958 368.954 147.958C368.954 147.958 380.463 174.438 405.255 188.751Z" fill="#EBEBEB"/>
<path opacity="0.976" fill-rule="evenodd" clip-rule="evenodd" d="M408.805 381.354C403.023 381.057 397.319 380.553 391.688 379.843C412.577 395.796 428.687 415.603 440.017 439.263C435.194 437.639 430.16 436.464 424.914 435.738C428.923 445.403 432.951 455.138 436.996 464.944C370.752 484.253 309.167 474.518 252.241 435.738C251.569 430.031 251.569 424.324 252.241 418.617C253.543 406.42 255.22 394.335 257.275 382.361C247.367 394.314 239.984 407.743 235.125 422.645C232.943 420.463 230.762 418.282 228.58 416.099C231.456 394.378 238.167 373.9 248.717 354.665C246.425 355.059 244.076 355.059 241.669 354.665C242.888 355.565 242.888 356.404 241.669 357.183C236.941 360.55 232.242 363.907 227.573 367.254C240.828 338.375 259.958 314.037 284.963 294.239C291.934 289.578 299.318 285.717 307.114 282.657C309.224 296.136 312.748 309.229 317.685 321.934C318.305 323.562 319.312 324.904 320.706 325.963C330.469 307.638 342.383 290.853 356.449 275.607C356.114 275.272 355.777 274.935 355.442 274.6C343.88 280.96 333.644 289.017 324.733 298.771C320.709 287.706 318.359 276.292 317.685 264.529C317.295 263.594 316.623 262.923 315.672 262.515C299.922 268.042 285.155 275.427 271.371 284.671C276.966 266.429 285.524 249.645 297.045 234.316C295.111 233.167 293.097 232.998 291.004 233.812C284.639 235.767 278.263 237.614 271.874 239.351C271.874 239.016 271.874 238.679 271.874 238.344C290.463 216.618 313.956 203.19 342.353 198.06C334.838 194.714 327.119 191.86 319.196 189.499C339.838 189.265 359.639 193.293 378.599 201.585C404.722 214.648 430.228 228.747 455.119 243.883C481.636 259.327 510.163 265.705 540.701 263.018C546.419 260.172 551.453 261.011 555.803 265.536C538.744 279.204 519.278 284.407 497.407 281.146C479.514 277.97 461.727 274.277 444.044 270.068C401.308 260.773 381.003 278.062 383.13 321.934C384.243 332.428 386.928 342.5 391.185 352.148C396.574 362.273 402.447 372.009 408.805 381.354Z" fill="#C1C1C1"/>
<path opacity="0.976" fill-rule="evenodd" clip-rule="evenodd" d="M301.073 91.306C292.188 86.695 283.126 82.3308 273.888 78.2136C273.553 78.5492 273.217 78.885 272.881 79.2207C277.291 86.1944 281.319 93.4121 284.964 100.874C281.339 99.8239 277.983 97.9775 274.895 95.3345C274.56 95.6701 274.224 96.0059 273.888 96.3416C275.359 103.029 276.702 109.744 277.916 116.484C266.403 100.827 258.684 83.3702 254.758 64.114C272.731 69.03 288.17 78.094 301.073 91.306Z" fill="#C1C1C1"/>
<path fill-rule="evenodd" clip-rule="evenodd" d="M237.861 124.124C195.527 159.979 168.732 213.426 168.732 273.161C168.732 380.971 256.129 468.367 363.938 468.367C404.232 468.367 441.614 456.188 472.689 435.297V328.934H533.644V465.615L521.984 474.767C478.457 508.932 423.536 529.322 363.938 529.322C222.464 529.322 107.777 414.635 107.777 273.161C107.777 194.753 143.042 124.551 198.467 77.6099L237.861 124.124Z" fill="#57CB6A"/>
<path d="M410.913 184.729V167.431C410.461 167.851 409.904 168.271 409.244 168.691C408.601 169.094 407.922 169.479 407.21 169.847C406.497 170.197 405.793 170.521 405.097 170.819C404.402 171.099 403.794 171.318 403.272 171.475V166.301C403.863 166.056 404.541 165.688 405.306 165.198C406.088 164.708 406.845 164.191 407.575 163.649C408.305 163.088 408.966 162.554 409.557 162.047C410.148 161.539 410.548 161.145 410.756 160.865H416.363V184.729H410.913Z" fill="#57CB6A"/>
</svg>
