<svg width="680" height="728" viewBox="0 0 680 728" fill="none" xmlns="http://www.w3.org/2000/svg">
<path d="M119.501 582.227C117.131 587.757 115.551 592.496 113.181 598.026C104.492 593.286 95.012 590.916 85.5325 590.126C62.6238 588.546 46.0347 598.816 39.715 620.935C34.9753 637.524 34.9753 654.113 42.0849 669.912C48.4045 684.131 58.674 692.031 74.4731 693.611C83.9526 694.401 92.6421 693.611 102.122 692.031C102.122 684.131 102.122 675.442 102.122 667.542C102.122 659.643 102.122 651.743 102.122 643.843C108.441 643.843 113.971 643.843 119.501 643.843C119.501 664.382 119.501 684.131 119.501 705.46C113.971 706.25 108.441 707.83 102.912 708.62C94.2221 709.41 85.5325 710.99 76.843 710.99C42.8748 710.99 20.756 688.871 16.8062 656.483C15.2263 643.054 15.2263 628.834 19.9661 615.405C28.6556 589.336 50.7744 573.537 78.4229 572.747C89.4823 572.747 99.7518 574.327 109.231 577.487C113.181 579.067 116.341 580.647 119.501 582.227Z" fill="#494949"/>
<path d="M576.096 663.595C553.187 663.595 531.068 663.595 508.159 663.595C509.739 668.335 509.739 673.074 511.319 677.814C515.269 688.084 523.169 692.823 533.438 694.403C543.707 695.983 553.977 695.193 564.246 691.243C565.036 691.243 566.616 690.453 567.406 690.453C568.196 695.193 568.986 699.933 569.776 705.463C562.666 707.043 556.347 708.622 550.027 709.412C537.388 710.992 524.748 710.202 512.899 703.883C502.63 698.353 495.52 690.453 492.36 679.394C487.62 662.805 487.62 646.216 495.52 630.417C504.999 611.458 525.538 602.768 546.077 607.508C561.086 611.458 568.986 620.937 572.936 635.946C576.096 644.636 576.886 653.325 576.096 663.595ZM508.949 648.586C525.538 648.586 541.338 648.586 557.927 648.586C557.927 632.787 550.027 622.517 536.598 621.727C521.589 620.937 510.529 632.787 508.949 648.586Z" fill="#494949"/>
<path d="M268.802 706.25C249.843 708.62 231.674 712.569 213.505 707.04C200.076 703.09 193.756 692.82 193.756 678.601C193.756 665.172 200.866 654.903 213.505 650.953C224.565 647.003 236.414 647.003 248.263 649.373C249.843 649.373 250.633 650.163 252.213 650.163C253.793 634.364 248.263 624.094 234.044 622.514C224.565 621.724 215.875 623.304 206.396 625.674C205.606 620.934 204.816 616.195 204.026 611.455C209.556 608.295 215.875 608.295 222.195 607.505C232.464 606.715 241.944 606.715 251.423 610.665C259.323 613.825 264.853 620.144 267.222 628.044C268.012 631.204 269.592 635.154 269.592 638.313C268.802 660.432 268.802 683.341 268.802 706.25ZM251.423 663.592C241.154 661.222 230.094 660.432 220.615 664.382C214.295 666.752 211.135 672.282 211.135 678.601C211.135 686.501 215.085 690.451 222.195 692.82C231.674 695.98 241.944 694.4 251.423 693.61C251.423 683.341 251.423 673.861 251.423 663.592Z" fill="#494949"/>
<path d="M298.826 612.249C304.356 611.459 309.886 609.879 316.205 609.089C326.475 608.299 337.534 607.509 347.804 608.299C364.393 609.879 374.662 620.938 377.032 638.317C377.822 643.847 377.822 648.587 377.822 654.116C377.822 670.706 377.822 686.505 377.822 703.094C377.822 704.674 377.822 706.254 377.822 707.834C371.502 707.834 365.973 707.834 359.653 707.834C359.653 706.254 359.653 704.674 359.653 703.094C359.653 688.085 359.653 673.075 359.653 658.066C359.653 650.957 358.863 643.847 357.283 636.737C355.703 628.838 350.173 624.888 343.064 624.098C334.374 622.518 325.685 624.098 316.995 625.678C316.995 653.326 316.995 680.975 316.995 708.623C310.676 708.623 305.146 708.623 299.616 708.623C298.826 676.235 298.826 644.637 298.826 612.249Z" fill="#494949"/>
<path d="M657.454 610.664C656.664 616.193 655.084 620.933 654.294 624.883C647.184 623.303 640.865 621.723 633.755 621.723C629.805 621.723 625.066 622.513 621.116 623.303C613.216 626.463 610.846 635.152 617.166 641.472C619.536 643.842 623.486 646.212 627.436 647.792C633.755 650.952 640.075 652.531 646.394 655.691C653.504 658.851 659.824 663.591 662.194 672.28C666.143 688.869 660.614 703.879 639.285 707.828C625.066 710.988 610.846 710.198 597.417 704.669C596.627 704.669 595.837 703.879 595.047 703.879L594.257 703.089C595.047 698.349 596.627 693.609 597.417 688.869C604.527 690.449 610.846 692.819 617.956 693.609C624.276 694.399 631.385 693.609 637.705 692.029C646.395 689.659 648.764 680.18 642.445 673.86C640.075 671.49 636.915 669.121 633.755 668.331C627.436 665.171 621.906 662.801 615.586 660.431C608.477 657.271 602.157 653.321 598.997 645.422C592.677 629.623 601.367 613.034 618.746 608.294C628.225 605.134 645.605 605.924 657.454 610.664Z" fill="#494949"/>
<path d="M474.178 690.45C474.968 695.19 475.758 699.929 476.548 704.669C474.968 705.459 474.178 706.249 473.388 706.249C459.958 710.199 446.529 710.989 433.1 707.039C418.881 702.299 408.611 692.82 404.661 678.6C399.922 662.801 399.922 647.002 407.821 631.203C414.931 616.194 427.57 607.504 444.159 605.924C454.429 605.134 464.698 605.924 474.968 610.664C473.388 615.404 472.598 620.144 471.018 624.883C465.488 624.093 460.748 622.513 456.009 621.723C446.529 620.934 436.26 621.723 429.15 629.623C425.99 632.783 423.62 637.523 422.04 641.472C418.881 653.322 418.881 665.171 422.83 676.231C426.78 686.5 433.89 691.24 444.159 692.82C452.849 694.4 462.328 693.61 471.018 690.45C471.808 691.24 472.598 691.24 474.178 690.45Z" fill="#494949"/>
<path d="M181.11 694.401C180.32 699.141 179.53 703.88 178.74 708.62C162.151 711.78 147.932 701.511 147.932 684.132C147.932 646.214 147.932 608.296 147.932 571.168C147.932 568.798 147.932 566.428 147.932 564.058C154.252 563.268 159.781 561.688 166.101 560.898C166.101 563.268 166.101 564.848 166.101 566.428C166.101 602.766 166.101 639.104 166.101 675.442C166.101 677.812 166.101 680.182 166.101 681.762C166.891 688.871 169.261 692.031 177.161 693.611C177.95 693.611 178.74 694.401 181.11 694.401Z" fill="#494949"/>
<path fill-rule="evenodd" clip-rule="evenodd" d="M363.176 77.9551C315.086 77.9551 271.127 95.3057 237.099 124.124L197.705 77.6099C242.328 39.8177 300.127 17 363.176 17C426.226 17 484.025 39.8177 528.647 77.6099L489.253 124.124C455.226 95.3057 411.266 77.9551 363.176 77.9551Z" fill="#57CB6A"/>
<path fill-rule="evenodd" clip-rule="evenodd" d="M163.728 287.816C173.553 255.562 189.499 226.856 211.567 201.698C206.204 202.364 200.997 203.875 195.953 206.231C195.701 206.063 195.451 205.895 195.2 205.727C194.95 205.559 194.7 205.391 194.448 205.224C213.147 177.289 236.637 154.292 264.937 136.229C247.989 107.887 239.26 77.1667 238.751 44.0684C277.357 50.276 309.921 67.5666 336.442 95.9402C383.5 104.115 426.133 122.245 464.345 150.33C473.774 157.07 480.992 165.632 485.998 176.014C488.227 184.018 490.237 192.075 492.037 200.188C495.367 207.553 500.249 213.765 506.654 218.821C514.896 226.05 523.951 232.093 533.837 236.951C546.316 240.877 559.084 243.395 572.12 244.505C572.784 254.497 570.257 263.562 564.558 271.7C543.233 287.724 519.227 293.935 492.545 290.334C470.521 286.547 448.544 282.685 426.589 278.751C409.658 279.224 399.913 287.953 397.374 304.939C395.789 319.077 398.814 332.171 406.442 344.22C410.222 350.104 414.243 355.812 418.519 361.343C430.312 374.648 442.909 387.071 456.294 398.61C449.43 400.551 442.385 401.726 435.149 402.135C442.641 406.535 451.499 412.15 460.753 418.015C476.501 427.998 493.395 438.707 506.654 445.388C452.031 477.035 393.002 511.14 270.976 465.087C218.61 445.323 178.103 409.581 163.728 372.787C151.304 340.989 153.903 320.07 163.728 287.816ZM404.493 188.751C429.285 203.065 457.971 199.792 457.971 199.792C457.971 199.792 447.819 170.964 423.027 156.65C398.235 142.336 368.192 147.958 368.192 147.958C368.192 147.958 379.701 174.438 404.493 188.751Z" fill="#494949"/>
<path opacity="0.976" fill-rule="evenodd" clip-rule="evenodd" d="M408.043 381.354C402.262 381.057 396.557 380.553 390.927 379.843C411.816 395.796 427.925 415.603 439.255 439.263C434.432 437.639 429.398 436.464 424.152 435.738C428.162 445.403 432.189 455.138 436.234 464.944C369.99 484.253 308.405 474.518 251.479 435.738C250.808 430.031 250.808 424.324 251.479 418.617C252.781 406.42 254.458 394.335 256.513 382.361C246.605 394.314 239.222 407.743 234.363 422.645C232.181 420.463 230 418.282 227.818 416.099C230.694 394.378 237.406 373.9 247.955 354.665C245.664 355.059 243.315 355.059 240.907 354.665C242.127 355.565 242.127 356.404 240.907 357.183C236.179 360.55 231.48 363.907 226.812 367.254C240.067 338.375 259.197 314.037 284.201 294.239C291.172 289.578 298.556 285.717 306.352 282.657C308.462 296.136 311.986 309.229 316.924 321.934C317.543 323.562 318.55 324.904 319.944 325.963C329.708 307.638 341.622 290.853 355.687 275.607C355.352 275.272 355.016 274.935 354.68 274.6C343.119 280.96 332.882 289.017 323.972 298.771C319.947 287.706 317.597 276.292 316.924 264.529C316.533 263.594 315.862 262.923 314.91 262.515C299.16 268.042 284.394 275.427 270.609 284.671C276.204 266.429 284.762 249.645 296.284 234.316C294.349 233.167 292.336 232.998 290.242 233.812C283.877 235.767 277.501 237.614 271.113 239.351C271.113 239.016 271.113 238.679 271.113 238.344C289.701 216.618 313.194 203.19 341.591 198.06C334.076 194.714 326.357 191.86 318.434 189.499C339.076 189.265 358.877 193.293 377.838 201.585C403.96 214.648 429.466 228.747 454.358 243.883C480.875 259.327 509.402 265.705 539.939 263.018C545.657 260.172 550.691 261.011 555.042 265.536C537.983 279.204 518.516 284.407 496.645 281.146C478.752 277.97 460.965 274.277 443.282 270.068C400.546 260.773 380.241 278.062 382.368 321.934C383.481 332.428 386.166 342.5 390.423 352.148C395.813 362.273 401.686 372.009 408.043 381.354Z" fill="#666666"/>
<path opacity="0.976" fill-rule="evenodd" clip-rule="evenodd" d="M300.311 91.306C291.426 86.695 282.364 82.3308 273.127 78.2136C272.791 78.5492 272.455 78.885 272.12 79.2207C276.53 86.1944 280.557 93.4121 284.202 100.874C280.577 99.8239 277.221 97.9775 274.133 95.3345C273.798 95.6701 273.462 96.0059 273.127 96.3416C274.598 103.029 275.941 109.744 277.154 116.484C265.642 100.827 257.922 83.3702 253.997 64.114C271.97 69.03 287.409 78.094 300.311 91.306Z" fill="#666666"/>
<path fill-rule="evenodd" clip-rule="evenodd" d="M237.1 124.124C194.765 159.979 167.97 213.426 167.97 273.161C167.97 380.971 255.367 468.367 363.176 468.367C403.47 468.367 440.853 456.188 471.927 435.297V328.934H532.882V465.615L521.222 474.767C477.695 508.932 422.774 529.322 363.176 529.322C221.702 529.322 107.015 414.635 107.015 273.161C107.015 194.753 142.28 124.551 197.705 77.6099L237.1 124.124Z" fill="#57CB6A"/>
<path d="M410.151 184.729V167.431C409.699 167.851 409.143 168.271 408.482 168.691C407.839 169.094 407.161 169.479 406.448 169.847C405.735 170.197 405.031 170.521 404.336 170.819C403.64 171.099 403.032 171.318 402.51 171.475V166.301C403.101 166.056 403.779 165.688 404.544 165.198C405.327 164.708 406.083 164.191 406.813 163.649C407.543 163.088 408.204 162.554 408.795 162.047C409.386 161.539 409.786 161.145 409.995 160.865H415.601V184.729H410.151Z" fill="#57CB6A"/>
</svg>
