<svg width="466" height="513" viewBox="0 0 466 513" fill="none" xmlns="http://www.w3.org/2000/svg">
<path fill-rule="evenodd" clip-rule="evenodd" d="M254.919 74.6719C210.209 74.6719 169.338 90.8033 137.702 117.597L101.076 74.351C142.563 39.2144 196.3 18 254.919 18C313.539 18 367.276 39.2144 408.763 74.351L372.137 117.597C340.501 90.8033 299.63 74.6719 254.919 74.6719Z" fill="#57CB6A"/>
<path fill-rule="evenodd" clip-rule="evenodd" d="M69.4858 269.786C78.6202 239.798 93.4465 213.11 113.963 189.72C108.977 190.339 104.136 191.744 99.4465 193.934C99.2124 193.778 98.9797 193.622 98.7469 193.466C98.5141 193.31 98.2814 193.153 98.0473 192.997C115.432 167.026 137.272 145.644 163.583 128.851C147.826 102.5 139.711 73.9389 139.237 43.1663C175.13 48.9377 205.406 65.0133 230.063 91.3932C273.815 98.9935 313.452 115.849 348.979 141.961C357.746 148.228 364.456 156.188 369.111 165.841C371.183 173.282 373.052 180.773 374.725 188.315C377.822 195.163 382.36 200.939 388.315 205.639C395.978 212.36 404.397 217.979 413.588 222.496C425.19 226.146 437.061 228.487 449.181 229.519C449.798 238.808 447.449 247.236 442.15 254.803C422.323 269.701 400.004 275.475 375.197 272.127C354.721 268.606 334.288 265.016 313.877 261.358C298.135 261.798 289.075 269.913 286.714 285.706C285.24 298.85 288.053 311.024 295.145 322.227C298.66 327.698 302.398 333.004 306.373 338.146C317.338 350.517 329.049 362.067 341.494 372.795C335.112 374.599 328.562 375.692 321.835 376.072C328.8 380.163 337.036 385.383 345.639 390.837C360.281 400.118 375.988 410.074 388.315 416.286C337.531 445.709 282.649 477.418 169.198 434.6C120.511 416.226 82.8511 382.995 69.4857 348.786C57.9354 319.223 60.3512 299.774 69.4858 269.786ZM293.333 177.683C316.383 190.99 343.053 187.948 343.053 187.948C343.053 187.948 333.614 161.145 310.564 147.837C287.514 134.529 259.583 139.756 259.583 139.756C259.583 139.756 270.283 164.375 293.333 177.683Z" fill="#EBEBEB"/>
<path opacity="0.976" fill-rule="evenodd" clip-rule="evenodd" d="M296.633 356.751C291.258 356.475 285.954 356.007 280.72 355.347C300.141 370.178 315.118 388.594 325.652 410.591C321.168 409.082 316.488 407.989 311.611 407.314C315.338 416.3 319.083 425.351 322.844 434.468C261.255 452.42 203.997 443.369 151.071 407.314C150.447 402.008 150.447 396.702 151.071 391.396C152.281 380.056 153.841 368.82 155.751 357.688C146.539 368.801 139.675 381.286 135.157 395.141C133.129 393.112 131.101 391.084 129.073 389.055C131.746 368.86 137.986 349.821 147.795 331.938C145.664 332.304 143.48 332.304 141.242 331.938C142.376 332.774 142.376 333.554 141.242 334.279C136.846 337.409 132.477 340.53 128.137 343.643C140.46 316.793 158.246 294.164 181.494 275.758C187.975 271.424 194.84 267.834 202.088 264.99C204.05 277.522 207.326 289.694 211.917 301.507C212.493 303.02 213.429 304.268 214.725 305.252C223.803 288.216 234.879 272.61 247.956 258.435C247.645 258.123 247.332 257.811 247.02 257.499C236.271 263.412 226.754 270.903 218.47 279.971C214.728 269.684 212.543 259.072 211.917 248.135C211.554 247.267 210.929 246.642 210.045 246.263C195.401 251.401 181.673 258.268 168.857 266.862C174.059 249.902 182.015 234.297 192.727 220.045C190.929 218.977 189.057 218.82 187.111 219.577C181.193 221.394 175.264 223.112 169.325 224.727C169.325 224.415 169.325 224.102 169.325 223.791C186.607 203.591 208.45 191.107 234.851 186.337C227.864 183.226 220.687 180.573 213.321 178.378C232.513 178.16 250.922 181.905 268.551 189.614C292.837 201.759 316.551 214.868 339.693 228.94C364.347 243.299 390.87 249.229 419.261 246.731C424.577 244.085 429.258 244.865 433.303 249.072C417.442 261.779 399.344 266.617 379.009 263.585C362.374 260.632 345.837 257.198 329.396 253.285C289.663 244.644 270.785 260.717 272.763 301.507C273.797 311.264 276.294 320.627 280.252 329.597C285.263 339.011 290.723 348.063 296.633 356.751Z" fill="#C1C1C1"/>
<path opacity="0.976" fill-rule="evenodd" clip-rule="evenodd" d="M196.472 87.0847C188.211 82.7977 179.786 78.7402 171.197 74.9123C170.886 75.2244 170.573 75.5365 170.261 75.8486C174.361 82.3323 178.106 89.0428 181.494 95.98C178.124 95.004 175.004 93.2874 172.133 90.8301C171.822 91.1422 171.509 91.4544 171.197 91.7665C172.565 97.9843 173.814 104.227 174.942 110.493C164.238 95.9365 157.061 79.7065 153.412 61.8035C170.122 66.374 184.476 74.8011 196.472 87.0847Z" fill="#C1C1C1"/>
<path fill-rule="evenodd" clip-rule="evenodd" d="M137.702 117.597C98.3419 150.932 73.4302 200.623 73.4302 256.161C73.4302 356.395 154.686 437.65 254.92 437.65C292.382 437.65 327.138 426.327 356.029 406.904V308.015H412.701V435.092L401.86 443.601C361.391 475.365 310.33 494.322 254.92 494.322C123.387 494.322 16.7583 387.694 16.7583 256.161C16.7583 183.263 49.5451 117.993 101.076 74.3508L137.702 117.597Z" fill="#57CB6A"/>
<path d="M298.593 173.943V157.86C298.173 158.251 297.656 158.641 297.041 159.032C296.443 159.407 295.813 159.765 295.15 160.106C294.488 160.432 293.833 160.733 293.186 161.01C292.54 161.27 291.974 161.474 291.489 161.62V156.81C292.039 156.582 292.669 156.24 293.38 155.785C294.108 155.329 294.811 154.849 295.49 154.344C296.169 153.823 296.783 153.326 297.332 152.854C297.882 152.382 298.254 152.016 298.448 151.756H303.66V173.943H298.593Z" fill="#57CB6A"/>
</svg>
